<svg width="56" height="57" viewBox="0 0 56 57" fill="none" xmlns="http://www.w3.org/2000/svg">
<path d="M53 3H52.2432C50.9071 3 50.2379 3 49.6929 3.24219C49.2125 3.45572 48.8017 3.7995 48.5054 4.23543C48.17 4.72906 48.0489 5.38821 47.8071 6.70394L41.7194 39.8335L12.3288 39.8333C11.0508 39.8333 10.4098 39.8333 9.88035 39.6064C9.41269 39.406 9.0094 39.0814 8.70986 38.6687C8.37115 38.2019 8.22764 37.5771 7.9409 36.3288L7.93874 36.3199L3.51332 17.0532L3.5124 17.0492C3.07741 15.1554 2.8594 14.2063 3.0988 13.4618C3.30886 12.8085 3.7509 12.2546 4.33723 11.9021C5.00601 11.5 5.97235 11.5 7.90996 11.5H45.9497M10.6983 54C12.2558 54 13.5184 52.7315 13.5184 51.1667C13.5184 49.6019 12.2558 48.3333 10.6983 48.3333C9.14076 48.3333 7.87815 49.6019 7.87815 51.1667C7.87815 52.7315 9.14076 54 10.6983 54ZM38.8994 54C40.4569 54 41.7195 52.7315 41.7195 51.1667C41.7195 49.6019 40.4569 48.3333 38.8994 48.3333C37.3419 48.3333 36.0793 49.6019 36.0793 51.1667C36.0793 52.7315 37.3419 54 38.8994 54Z" stroke="black" stroke-width="5" stroke-linecap="round" stroke-linejoin="round"/>
</svg>
