<svg width="466" height="173" viewBox="0 0 466 173" fill="none" xmlns="http://www.w3.org/2000/svg">
<path d="M9.74308 129.484C10.9007 129.356 12.219 129.388 13.6982 129.581C16.7208 130.286 18.8752 131.76 20.1614 134.003L20.4508 134.484L21.0296 133.811C22.3801 132.465 23.795 131.439 25.2741 130.734C26.9462 129.901 28.8112 129.484 30.8692 129.484C32.0268 129.484 32.8306 129.548 33.2808 129.677C34.4384 129.997 35.5638 130.542 36.6571 131.311C38.8437 133.106 39.8084 135.542 39.5511 138.618C39.5511 138.811 39.5511 138.971 39.5511 139.099C39.1653 142.24 37.8147 144.355 35.4995 145.445C33.6988 146.278 31.9946 146.342 30.3868 145.637C28.5218 144.74 27.8144 143.105 28.2646 140.733C28.5218 139.452 29.1328 138.266 30.0974 137.176C30.9335 136.407 31.866 135.862 32.895 135.542L33.5702 135.253L33.2808 134.965C31.8017 133.747 29.9367 133.555 27.6858 134.388C25.4349 135.285 23.377 137.368 21.5119 140.637L20.7402 141.791L17.3639 155.54C14.9844 164.77 13.6982 169.577 13.5053 169.962C12.6049 171.885 11.0936 172.878 8.97135 172.942C7.94238 172.942 7.04203 172.654 6.2703 172.077C5.94875 171.949 5.65935 171.596 5.4021 171.019C5.08055 170.378 5.04839 169.417 5.30564 168.135C5.62719 166.661 6.75263 162.046 8.68195 154.29C11.1901 144.355 12.4763 139.195 12.5406 138.811C12.9908 135.67 12.3798 134.035 10.7077 133.907C10.5148 133.907 10.3219 133.907 10.1289 133.907C8.19962 134.292 6.49539 137.432 5.01624 143.329C4.759 144.099 4.63037 144.515 4.63037 144.579C3.92296 144.964 3.15123 145.156 2.31519 145.156H0.482331L0.192932 144.868C-0.0643108 144.611 -0.0643108 143.938 0.192932 142.849C1.41484 138.362 2.92614 134.997 4.72684 132.753C6.14168 131.023 7.81376 129.933 9.74308 129.484Z" fill="black"/>
<path d="M70.9192 129.484H74.7778C79.4082 130.189 82.3665 132.305 83.6527 135.83C84.0386 137.112 84.1029 138.426 83.8456 139.772C82.7524 144.707 79.1831 147.944 73.1379 149.483C70.4369 150.252 65.9673 150.733 59.7291 150.925H56.6422L56.4493 151.502C56.192 152.591 55.8705 154.258 55.4846 156.501C55.2274 158.552 55.2274 160.379 55.4846 161.982C55.8705 163.841 56.6744 165.347 57.8963 166.501C59.3754 167.847 61.369 168.488 63.8772 168.423C69.022 168.103 73.363 166.629 76.9001 164.001C78.122 163.232 79.151 162.302 79.987 161.213C80.6944 160.379 81.2732 160.123 81.7234 160.443C81.9163 160.572 82.27 160.892 82.7845 161.405C83.6849 162.366 84.1029 162.975 84.0386 163.232C83.9743 163.552 83.2668 164.385 81.9163 165.731C77.8647 169.577 72.6556 171.885 66.2888 172.654C64.1022 173.038 62.1729 173.103 60.5008 172.846C54.4556 172.205 50.2433 169.161 47.8638 163.712C47.4136 162.751 47.0599 161.725 46.8027 160.636C46.3525 159.033 46.1274 157.014 46.1274 154.578C46.1917 150.797 47.0277 147.335 48.6355 144.195C49.7931 141.823 51.3687 139.644 53.3623 137.657C54.327 136.759 55.5168 135.766 56.9316 134.676C60.8546 131.792 65.0991 130.093 69.6651 129.581C69.9867 129.516 70.4047 129.484 70.9192 129.484ZM73.5238 134.003C71.1443 133.555 68.6362 134.003 65.9994 135.349C62.2051 137.08 59.5683 140.413 58.0892 145.348C57.9606 145.861 57.8641 146.15 57.7998 146.214C57.7998 146.342 58.8609 146.406 60.9832 146.406C65.1634 146.342 68.3146 146.054 70.4369 145.541C74.81 144.643 77.3824 142.785 78.1541 139.964C78.4114 138.939 78.3792 138.041 78.0577 137.272C77.4789 135.606 75.9676 134.516 73.5238 134.003Z" fill="black"/>
<path d="M115.662 129.484C117.141 129.356 118.846 129.388 120.775 129.581C123.926 130.222 126.177 131.407 127.527 133.138C128.171 133.843 128.653 134.772 128.974 135.926C129.296 137.08 129.296 138.298 128.974 139.58C128.396 142.015 126.917 143.522 124.537 144.099C123.765 144.291 122.994 144.291 122.222 144.099C121.129 143.906 120.325 143.329 119.81 142.368C119.617 142.047 119.489 141.567 119.424 140.926C119.424 139.9 119.649 138.939 120.1 138.041C120.485 137.144 121.193 136.375 122.222 135.734L122.801 135.349L122.318 135.061C120.26 133.907 117.881 133.587 115.18 134.099C114.794 134.163 114.44 134.26 114.119 134.388C112.575 134.837 111.385 135.734 110.549 137.08C108.813 139.644 108.749 141.695 110.356 143.233C110.485 143.361 110.646 143.49 110.839 143.618C111.482 144.067 112.929 144.547 115.18 145.06C117.238 145.445 118.492 145.733 118.942 145.925C122.543 147.015 124.955 149.098 126.177 152.175C126.691 153.264 126.949 154.611 126.949 156.213C126.949 157.431 126.917 158.232 126.852 158.617C126.273 161.245 125.244 163.552 123.765 165.539C120.1 170.667 114.408 173.135 106.691 172.942C101.031 172.75 97.1406 171.019 95.0184 167.75C94.8255 167.494 94.6647 167.206 94.536 166.885C94.0859 165.988 93.8608 164.898 93.8608 163.616C93.7965 162.334 94.0537 161.084 94.6325 159.866C95.147 159.033 95.565 158.424 95.8866 158.04C97.9445 156.053 100.163 155.508 102.543 156.405C102.671 156.469 102.8 156.533 102.929 156.598C104.215 157.174 104.954 158.168 105.147 159.578C105.469 161.693 104.729 163.552 102.929 165.155C102.543 165.539 102.093 165.86 101.578 166.116C101.128 166.372 100.871 166.533 100.806 166.597C100.999 166.917 101.835 167.302 103.314 167.75C104.601 168.135 106.208 168.327 108.138 168.327C110.067 168.327 111.611 168.135 112.768 167.75C114.89 167.109 116.498 165.892 117.591 164.097C119.071 161.982 119.392 160.123 118.556 158.52C117.913 157.174 116.82 156.245 115.276 155.732C114.826 155.54 113.636 155.251 111.707 154.867C109.456 154.418 107.72 153.937 106.498 153.425C103.925 152.015 102.253 149.931 101.482 147.175C101.353 146.662 101.289 145.861 101.289 144.772C101.224 143.618 101.449 142.176 101.964 140.445C102.671 138.33 103.732 136.407 105.147 134.676C107.591 131.792 111.096 130.061 115.662 129.484Z" fill="black"/>
<path d="M155.671 111.794C156.636 111.537 157.536 111.601 158.373 111.986C159.337 112.306 159.98 112.915 160.302 113.813C160.559 114.582 160.366 116.184 159.723 118.62C159.53 119.453 159.176 120.895 158.662 122.946C157.504 127.754 156.893 130.189 156.829 130.254C156.829 130.382 158.373 130.446 161.459 130.446H166.09L166.379 130.734C166.765 130.991 166.765 131.824 166.379 133.234C166.186 134.196 165.993 134.869 165.8 135.253C165.607 135.574 164.964 135.766 163.871 135.83C163.357 135.83 162.167 135.83 160.302 135.83H155.479L155.382 136.215C155.382 136.407 154.257 140.862 152.006 149.579C149.948 157.783 148.822 162.462 148.629 163.616C148.372 165.026 148.404 166.18 148.726 167.077C149.176 168.167 150.237 168.584 151.909 168.327C154.675 167.75 157.151 165.795 159.337 162.462C160.43 160.796 161.138 159.45 161.459 158.424C161.781 157.719 162.135 157.335 162.521 157.271C162.778 157.206 163.324 157.174 164.16 157.174C165.382 157.174 166.09 157.239 166.283 157.367C166.669 157.751 166.572 158.52 165.993 159.674C164.386 163.135 162.392 166.02 160.012 168.327C158.662 169.673 157.311 170.667 155.961 171.308C154.932 171.885 153.806 172.333 152.585 172.654C152.006 172.782 151.105 172.846 149.884 172.846C148.662 172.846 147.697 172.75 146.99 172.558C144.674 171.981 142.874 170.891 141.587 169.289C140.751 168.135 140.237 166.949 140.044 165.731C139.915 165.219 139.851 164.481 139.851 163.52L139.947 162.174L143.227 149.098C145.414 140.509 146.507 136.118 146.507 135.926C146.507 135.862 144.964 135.83 141.877 135.83C138.661 135.83 136.925 135.606 136.668 135.157C136.539 134.965 136.603 134.26 136.861 133.042C137.246 131.76 137.472 131.087 137.536 131.023C137.729 130.702 138.372 130.51 139.465 130.446C139.98 130.446 141.169 130.446 143.034 130.446H147.954L149.787 122.85C151.138 117.402 152.038 114.422 152.488 113.909C152.617 113.781 152.81 113.588 153.067 113.332C153.774 112.627 154.642 112.114 155.671 111.794Z" fill="black"/>
<path d="M196.412 129.484C196.476 129.42 197.055 129.388 198.148 129.388C199.306 129.516 200.11 129.613 200.56 129.677C202.682 130.318 204.419 131.407 205.769 132.946L206.251 133.619L206.927 132.946C208.663 131.343 210.464 130.895 212.329 131.6C213.293 131.92 213.936 132.529 214.258 133.426C214.515 134.196 214.355 135.798 213.776 138.234C213.39 139.9 212.49 143.522 211.075 149.098C208.824 157.879 207.634 162.719 207.505 163.616C207.248 165.026 207.28 166.18 207.602 167.077C207.988 168.103 208.727 168.552 209.821 168.423C210.592 168.359 211.396 167.75 212.232 166.597C213.133 165.251 214.065 162.751 215.03 159.097C215.287 158.008 215.576 157.399 215.898 157.271C216.091 157.206 216.702 157.174 217.731 157.174C218.953 157.174 219.628 157.239 219.757 157.367C220.142 157.623 220.142 158.36 219.757 159.578C218.085 165.539 215.93 169.481 213.293 171.404C212.264 172.173 211.235 172.654 210.206 172.846C208.856 173.038 207.409 172.942 205.865 172.558C202.972 171.917 200.914 170.41 199.692 168.039L199.402 167.366L198.823 167.847C193.743 172.205 188.727 173.744 183.775 172.462C182.36 172.077 181.042 171.5 179.82 170.731C176.154 168.167 174.064 164.353 173.549 159.29C173.292 157.559 173.324 155.7 173.646 153.713C174.482 148.329 176.701 143.393 180.302 138.907C181.524 137.432 182.874 136.086 184.354 134.869C188.019 131.856 191.717 130.093 195.447 129.581C195.704 129.516 196.026 129.484 196.412 129.484ZM199.209 134.196C197.923 133.875 196.862 133.811 196.026 134.003C194.032 134.388 192.103 135.51 190.238 137.368C188.373 139.355 186.733 142.881 185.318 147.944C184.997 149.098 184.643 150.444 184.257 151.983C183.164 156.341 182.617 159.578 182.617 161.693C182.617 163.68 183.035 165.251 183.871 166.404C185.093 168.007 186.797 168.648 188.984 168.327C191.428 168.071 193.936 166.661 196.508 164.097C197.666 162.943 198.534 161.886 199.113 160.924C199.113 161.116 199.981 157.751 201.717 150.829L204.129 140.926L204.033 140.253C203.197 137.048 201.589 135.029 199.209 134.196Z" fill="black"/>
<path d="M236.86 129.484C237.824 129.292 239.175 129.356 240.911 129.677C244.384 130.574 246.474 132.561 247.182 135.638C247.375 136.407 247.439 137.176 247.375 137.945C247.31 139.099 246.796 140.958 245.831 143.522C243.452 149.803 241.908 154.611 241.201 157.944C240.622 161.341 240.751 163.969 241.587 165.828C242.165 167.045 243.066 167.815 244.288 168.135C245.831 168.776 247.76 168.52 250.076 167.366C251.941 166.34 253.548 164.738 254.899 162.559C255.092 162.302 256.346 157.495 258.661 148.137C261.105 138.586 262.423 133.651 262.616 133.33C263.645 131.471 265.189 130.51 267.247 130.446C268.276 130.446 269.144 130.734 269.851 131.311C270.173 131.439 270.462 131.792 270.719 132.369C271.041 133.074 271.073 134.067 270.816 135.349C270.494 136.824 269.401 141.246 267.536 148.617C265.221 157.847 263.999 162.847 263.87 163.616C263.742 165.283 263.774 166.404 263.967 166.981C264.224 167.815 264.771 168.295 265.607 168.423C266.378 168.423 266.989 168.231 267.44 167.847C268.79 166.885 270.108 164.033 271.395 159.29C271.652 158.072 271.941 157.399 272.263 157.271C272.52 157.206 273.131 157.174 274.096 157.174C275.318 157.174 275.993 157.239 276.121 157.367C276.507 157.623 276.507 158.36 276.121 159.578C275.028 163.616 273.71 166.693 272.166 168.808C271.137 170.346 269.883 171.468 268.404 172.173C267.375 172.686 266.089 172.942 264.546 172.942C260.751 172.75 257.986 171.212 256.249 168.327L255.96 167.847L255.574 168.231C254.352 169.513 252.809 170.635 250.944 171.596C249.207 172.43 247.471 172.878 245.735 172.942C241.683 173.071 238.435 172.141 235.992 170.154C233.098 167.847 231.844 164.321 232.229 159.578C232.487 156.437 233.998 151.149 236.763 143.714C236.828 143.458 236.892 143.233 236.956 143.041C237.857 140.798 238.339 139.452 238.403 139.003C239.175 136.824 239.271 135.317 238.693 134.484C238.435 134.099 237.921 133.907 237.149 133.907C234.448 134.163 232.165 136.471 230.3 140.83C229.979 141.599 229.689 142.432 229.432 143.329C229.175 144.099 229.046 144.515 229.046 144.579C228.339 144.964 227.567 145.156 226.731 145.156H224.898L224.609 144.868C224.287 144.611 224.319 143.938 224.705 142.849C225.22 141.118 225.798 139.644 226.441 138.426C229.078 133.234 232.551 130.254 236.86 129.484Z" fill="black"/>
<path d="M290.328 129.484C291.485 129.356 292.804 129.388 294.283 129.581C297.305 130.286 299.46 131.76 300.746 134.003L301.035 134.484L301.614 133.811C302.965 132.465 304.38 131.439 305.859 130.734C307.531 129.901 309.396 129.484 311.454 129.484C312.611 129.484 313.415 129.548 313.865 129.677C315.023 129.997 316.148 130.542 317.242 131.311C319.428 133.106 320.393 135.542 320.136 138.618C320.136 138.811 320.136 138.971 320.136 139.099C319.75 142.24 318.399 144.355 316.084 145.445C314.283 146.278 312.579 146.342 310.971 145.637C309.106 144.74 308.399 143.105 308.849 140.733C309.106 139.452 309.717 138.266 310.682 137.176C311.518 136.407 312.451 135.862 313.48 135.542L314.155 135.253L313.865 134.965C312.386 133.747 310.521 133.555 308.27 134.388C306.019 135.285 303.962 137.368 302.096 140.637L301.325 141.791L297.948 155.54C295.569 164.77 294.283 169.577 294.09 169.962C293.189 171.885 291.678 172.878 289.556 172.942C288.527 172.942 287.627 172.654 286.855 172.077C286.533 171.949 286.244 171.596 285.987 171.019C285.665 170.378 285.633 169.417 285.89 168.135C286.212 166.661 287.337 162.046 289.267 154.29C291.775 144.355 293.061 139.195 293.125 138.811C293.575 135.67 292.964 134.035 291.292 133.907C291.099 133.907 290.906 133.907 290.713 133.907C288.784 134.292 287.08 137.432 285.601 143.329C285.344 144.099 285.215 144.515 285.215 144.579C284.508 144.964 283.736 145.156 282.9 145.156H281.067L280.777 144.868C280.52 144.611 280.52 143.938 280.777 142.849C281.999 138.362 283.511 134.997 285.311 132.753C286.726 131.023 288.398 129.933 290.328 129.484Z" fill="black"/>
<path d="M349.092 129.484C349.156 129.42 349.735 129.388 350.828 129.388C351.986 129.516 352.79 129.613 353.24 129.677C355.362 130.318 357.099 131.407 358.449 132.946L358.932 133.619L359.607 132.946C361.343 131.343 363.144 130.895 365.009 131.6C365.974 131.92 366.617 132.529 366.938 133.426C367.196 134.196 367.035 135.798 366.456 138.234C366.07 139.9 365.17 143.522 363.755 149.098C361.504 157.879 360.314 162.719 360.186 163.616C359.928 165.026 359.961 166.18 360.282 167.077C360.668 168.103 361.408 168.552 362.501 168.423C363.273 168.359 364.076 167.75 364.913 166.597C365.813 165.251 366.745 162.751 367.71 159.097C367.967 158.008 368.257 157.399 368.578 157.271C368.771 157.206 369.382 157.174 370.411 157.174C371.633 157.174 372.308 157.239 372.437 157.367C372.823 157.623 372.823 158.36 372.437 159.578C370.765 165.539 368.61 169.481 365.974 171.404C364.945 172.173 363.916 172.654 362.887 172.846C361.536 173.038 360.089 172.942 358.546 172.558C355.652 171.917 353.594 170.41 352.372 168.039L352.083 167.366L351.504 167.847C346.423 172.205 341.407 173.744 336.455 172.462C335.04 172.077 333.722 171.5 332.5 170.731C328.834 168.167 326.744 164.353 326.23 159.29C325.972 157.559 326.005 155.7 326.326 153.713C327.162 148.329 329.381 143.393 332.982 138.907C334.204 137.432 335.555 136.086 337.034 134.869C340.7 131.856 344.397 130.093 348.127 129.581C348.385 129.516 348.706 129.484 349.092 129.484ZM351.89 134.196C350.603 133.875 349.542 133.811 348.706 134.003C346.713 134.388 344.783 135.51 342.918 137.368C341.053 139.355 339.413 142.881 337.998 147.944C337.677 149.098 337.323 150.444 336.937 151.983C335.844 156.341 335.297 159.578 335.297 161.693C335.297 163.68 335.715 165.251 336.551 166.404C337.773 168.007 339.478 168.648 341.664 168.327C344.108 168.071 346.616 166.661 349.189 164.097C350.346 162.943 351.214 161.886 351.793 160.924C351.793 161.116 352.661 157.751 354.398 150.829L356.809 140.926L356.713 140.253C355.877 137.048 354.269 135.029 351.89 134.196Z" fill="black"/>
<path d="M386.839 129.581C387.804 129.324 389.122 129.324 390.794 129.581C394.46 130.478 396.839 132.465 397.933 135.542L398.126 136.118L399.187 135.157C400.409 133.939 401.534 133.01 402.563 132.369C405.778 130.318 409.316 129.324 413.174 129.388C416.84 129.581 419.637 130.606 421.567 132.465C424.075 134.901 424.943 138.458 424.171 143.137C423.528 146.855 421.76 152.495 418.866 160.059C417.772 163.071 417.226 165.187 417.226 166.404C417.226 167.43 417.451 168.071 417.901 168.327C418.416 168.584 419.219 168.52 420.313 168.135C422.821 167.174 424.847 164.514 426.39 160.155C426.519 159.706 426.647 159.258 426.776 158.809C427.098 157.847 427.419 157.335 427.741 157.271C427.934 157.206 428.512 157.174 429.477 157.174C430.699 157.174 431.406 157.239 431.599 157.367C431.728 157.495 431.792 157.751 431.792 158.136C431.792 159.226 431.149 161.052 429.863 163.616C428.705 165.988 427.29 167.943 425.618 169.481C423.11 171.853 420.377 173.006 417.419 172.942C413.753 172.75 411.181 171.244 409.701 168.423C409.123 167.27 408.833 165.956 408.833 164.481C408.898 163.2 409.283 161.693 409.991 159.963C412.435 153.297 414.01 148.457 414.718 145.445C415.747 141.599 415.94 138.65 415.296 136.599C414.782 134.804 413.528 133.907 411.534 133.907C406.132 133.907 401.566 137.016 397.836 143.233L397.257 144.291L394.074 156.79C392.08 164.994 390.923 169.385 390.601 169.962C389.701 171.885 388.19 172.878 386.067 172.942C385.038 172.942 384.138 172.654 383.366 172.077C383.045 171.949 382.755 171.596 382.498 171.019C382.176 170.378 382.144 169.417 382.402 168.135C382.723 166.661 383.849 162.046 385.778 154.29C388.286 144.355 389.572 139.195 389.636 138.811C390.022 135.862 389.508 134.228 388.093 133.907C386.292 133.715 384.781 135.189 383.559 138.33C383.109 139.484 382.659 140.99 382.209 142.849L381.726 144.579C381.019 144.964 380.247 145.156 379.411 145.156H377.578L377.289 144.868C377.032 144.611 377.032 143.938 377.289 142.849C379.604 134.837 382.787 130.414 386.839 129.581Z" fill="black"/>
<path d="M455.003 111.794C455.968 111.537 456.868 111.601 457.704 111.986C458.669 112.306 459.312 112.915 459.633 113.813C459.89 114.582 459.698 116.184 459.054 118.62C458.862 119.453 458.508 120.895 457.993 122.946C456.836 127.754 456.225 130.189 456.16 130.254C456.16 130.382 457.704 130.446 460.791 130.446H465.421L465.711 130.734C466.096 130.991 466.096 131.824 465.711 133.234C465.518 134.196 465.325 134.869 465.132 135.253C464.939 135.574 464.296 135.766 463.202 135.83C462.688 135.83 461.498 135.83 459.633 135.83H454.81L454.713 136.215C454.713 136.407 453.588 140.862 451.337 149.579C449.279 157.783 448.154 162.462 447.961 163.616C447.704 165.026 447.736 166.18 448.057 167.077C448.507 168.167 449.569 168.584 451.241 168.327C454.006 167.75 456.482 165.795 458.669 162.462C459.762 160.796 460.469 159.45 460.791 158.424C461.112 157.719 461.466 157.335 461.852 157.271C462.109 157.206 462.656 157.174 463.492 157.174C464.714 157.174 465.421 157.239 465.614 157.367C466 157.751 465.904 158.52 465.325 159.674C463.717 163.135 461.723 166.02 459.344 168.327C457.993 169.673 456.643 170.667 455.292 171.308C454.263 171.885 453.138 172.333 451.916 172.654C451.337 172.782 450.437 172.846 449.215 172.846C447.993 172.846 447.028 172.75 446.321 172.558C444.006 171.981 442.205 170.891 440.919 169.289C440.083 168.135 439.568 166.949 439.375 165.731C439.247 165.219 439.182 164.481 439.182 163.52L439.279 162.174L442.559 149.098C444.745 140.509 445.839 136.118 445.839 135.926C445.839 135.862 444.295 135.83 441.208 135.83C437.993 135.83 436.256 135.606 435.999 135.157C435.87 134.965 435.935 134.26 436.192 133.042C436.578 131.76 436.803 131.087 436.867 131.023C437.06 130.702 437.703 130.51 438.797 130.446C439.311 130.446 440.501 130.446 442.366 130.446H447.286L449.118 122.85C450.469 117.402 451.369 114.422 451.819 113.909C451.948 113.781 452.141 113.588 452.398 113.332C453.106 112.627 453.974 112.114 455.003 111.794Z" fill="black"/>
<path d="M163.34 1.92291L163.63 1.63448H192.28C211.573 1.63448 221.381 1.82677 221.702 2.21135C221.831 2.53184 221.284 6.37767 220.062 13.7489C218.776 21.3123 218.101 25.1261 218.037 25.1902C217.779 25.5107 217.008 25.6709 215.721 25.6709C214.371 25.6709 213.631 25.4786 213.503 25.0941C213.374 24.8377 213.406 24.0365 213.599 22.6904C214.564 16.8576 214.757 12.9476 214.178 10.9606C213.599 9.03771 211.573 7.78781 208.101 7.21094C207.522 7.14684 205.657 7.11479 202.506 7.11479C198.84 7.05069 196.846 7.21093 196.525 7.59552C196.396 7.72371 194.145 16.6012 189.772 34.2279L183.116 60.668L183.405 60.8603C184.241 61.1808 187.425 61.341 192.955 61.341H195.946L196.332 61.6295C196.525 61.8859 196.621 62.1102 196.621 62.3025L195.753 66.1483C195.56 66.5329 194.917 66.6932 193.824 66.6291C193.438 66.6291 192.505 66.6291 191.026 66.6291C177.585 66.3727 167.102 66.4047 159.578 66.7252H158.131L157.842 66.4368C157.52 66.1163 157.488 65.3792 157.745 64.2254C157.745 64.0972 157.777 63.969 157.842 63.8408C158.163 62.4307 158.453 61.6615 158.71 61.5333C158.903 61.4051 160.028 61.341 162.086 61.341C166.395 61.341 169.193 61.2449 170.479 61.0526C171.508 60.9885 172.215 60.7642 172.601 60.3796C172.73 60.1873 174.981 51.3098 179.354 33.7472C183.791 16.1204 186.01 7.27503 186.01 7.21094C185.753 7.08274 183.759 7.01864 180.029 7.01864C177.071 7.08274 175.27 7.17889 174.627 7.30708C170.897 7.88396 168.164 9.23 166.427 11.3452C164.755 13.3963 162.954 17.2742 161.025 22.9789C160.511 24.389 160.253 25.1261 160.253 25.1902C159.996 25.5107 159.224 25.6709 157.938 25.6709C156.652 25.6709 155.88 25.4466 155.623 24.9979L155.527 24.7095L159.192 13.4604C161.765 5.96104 163.147 2.11521 163.34 1.92291Z" fill="black"/>
<path d="M232.216 0.576873C237.36 0.192291 239.901 0 239.836 0C240.415 0 240.801 0.224339 240.994 0.673018C241.123 0.993504 239.997 5.8008 237.618 15.0949C235.238 24.2608 234.048 29.004 234.048 29.3245L234.82 28.6515C235.849 27.8823 236.46 27.4336 236.653 27.3054C239.933 25.1902 243.534 24.1647 247.457 24.2287C251.123 24.421 253.92 25.4466 255.85 27.3054C258.358 29.7411 259.226 33.2985 258.454 37.9776C257.876 41.4389 256.107 47.1435 253.149 55.0916C252.055 57.8477 251.509 59.8989 251.509 61.2449C251.509 62.5268 251.927 63.1999 252.763 63.264C252.891 63.264 253.052 63.264 253.245 63.264C254.596 63.1358 255.85 62.4627 257.007 61.2449C258.872 59.3861 260.223 56.8542 261.059 53.6494C261.381 52.6879 261.702 52.1751 262.024 52.111C262.217 52.0469 262.795 52.0149 263.76 52.0149C264.982 52.0149 265.689 52.079 265.882 52.2072C266.011 52.3354 266.075 52.5918 266.075 52.9764C266.075 54.066 265.432 55.8928 264.146 58.4567C262.988 60.8283 261.573 62.7832 259.901 64.3216C257.393 66.6932 254.66 67.8469 251.702 67.7828C250.158 67.7187 248.743 67.3341 247.457 66.6291C246.557 66.1804 245.882 65.6996 245.431 65.1869C244.853 64.61 244.402 64.0011 244.081 63.3601C243.438 62.1423 243.148 60.8603 243.213 59.5143C243.213 58.2323 243.47 56.8542 243.984 55.38C245.914 50.3163 247.264 46.5025 248.036 43.9386C249.837 37.9776 250.351 33.8113 249.579 31.4397C249.065 29.645 247.811 28.7476 245.817 28.7476C240.415 28.7476 235.881 31.8563 232.216 38.0737L231.54 39.0352L228.453 51.6303C226.331 59.963 225.174 64.3536 224.981 64.8023C224.338 66.1483 223.244 67.0777 221.701 67.5905C220.672 67.8469 219.643 67.8149 218.614 67.4944C217.842 67.1739 217.231 66.597 216.781 65.7638C216.459 65.251 216.395 64.5779 216.588 63.7447C216.781 62.4627 219 53.3289 223.244 36.3431C228.003 17.5626 230.286 7.88396 230.093 7.30708C229.707 6.73021 228.068 6.44177 225.174 6.44177C224.016 6.44177 223.341 6.21743 223.148 5.76875C223.083 5.44826 223.212 4.71114 223.534 3.5574C223.791 2.33955 224.048 1.60243 224.305 1.34604C224.498 1.15375 224.691 1.0576 224.884 1.0576C225.463 1.0576 227.907 0.897359 232.216 0.576873Z" fill="black"/>
<path d="M297.733 24.3249H301.591C306.222 25.03 309.18 27.1452 310.466 30.6705C310.852 31.9525 310.916 33.2665 310.659 34.6125C309.566 39.548 305.997 42.7849 299.951 44.3232C297.25 45.0924 292.781 45.5731 286.543 45.7654H283.456L283.263 46.3423C283.006 47.4319 282.684 49.0985 282.298 51.3419C282.041 53.393 282.041 55.2198 282.298 56.8222C282.684 58.681 283.488 60.1873 284.71 61.341C286.189 62.6871 288.183 63.3281 290.691 63.264C295.836 62.9435 300.176 61.4692 303.714 58.8412C304.935 58.0721 305.964 57.1427 306.8 56.053C307.508 55.2198 308.087 54.9634 308.537 55.2839C308.73 55.412 309.084 55.7325 309.598 56.2453C310.498 57.2068 310.916 57.8157 310.852 58.0721C310.788 58.3926 310.08 59.2258 308.73 60.5719C304.678 64.4177 299.469 66.7252 293.102 67.4944C290.916 67.879 288.986 67.9431 287.314 67.6867C281.269 67.0457 277.057 64.0011 274.677 58.5528C274.227 57.5914 273.873 56.5658 273.616 55.4761C273.166 53.8737 272.941 51.8547 272.941 49.419C273.005 45.6372 273.841 42.176 275.449 39.0352C276.607 36.6636 278.182 34.4843 280.176 32.4973C281.14 31.5999 282.33 30.6064 283.745 29.5168C287.668 26.6324 291.913 24.9338 296.479 24.421C296.8 24.3569 297.218 24.3249 297.733 24.3249ZM300.337 28.8437C297.958 28.3951 295.45 28.8437 292.813 30.1898C289.019 31.9204 286.382 35.2535 284.903 40.189C284.774 40.7017 284.678 40.9902 284.613 41.0543C284.613 41.1825 285.674 41.2466 287.797 41.2466C291.977 41.1825 295.128 40.894 297.25 40.3812C301.623 39.4839 304.196 37.6251 304.968 34.8048C305.225 33.7792 305.193 32.8819 304.871 32.1127C304.292 30.4462 302.781 29.3565 300.337 28.8437Z" fill="black"/>
</svg>
